<svg width="57" height="57" viewBox="0 0 57 57" fill="none" xmlns="http://www.w3.org/2000/svg">
<circle cx="28.5" cy="28.5" r="28.5" fill="#1E1E1E"/>
<path d="M26.5 41C26.5 41.8284 27.1716 42.5 28 42.5C28.8284 42.5 29.5 41.8284 29.5 41L26.5 41ZM29.0607 15.9393C28.4749 15.3536 27.5251 15.3536 26.9393 15.9393L17.3934 25.4853C16.8076 26.0711 16.8076 27.0208 17.3934 27.6066C17.9792 28.1924 18.9289 28.1924 19.5147 27.6066L28 19.1213L36.4853 27.6066C37.0711 28.1924 38.0208 28.1924 38.6066 27.6066C39.1924 27.0208 39.1924 26.0711 38.6066 25.4853L29.0607 15.9393ZM29.5 41L29.5 17L26.5 17L26.5 41L29.5 41Z" fill="white"/>
</svg>
